# xmcd
#
# Track frame offsets: 
#        183
#        14075
#        24863
#        35733
#        46698
#        58773
#        70303
#        81623
#        93308
#        104993
#        115823
#        128010
#        140073
#        157233
#        173840
#        183893
#        194803
#        206445
#        217403
#        230015
#        240365
#        252103
#        264403
#        275823
#        289323
#
# Disc length: 4031 seconds
#
# Revision: 8
# Processed by: cddbd v1.5.2PL0 Copyright (c) Steve Scherf et al.
# Submitted via: ExactAudioCopyFreeDBPlugin 1.0
#
DISCID=8c0fbd19
DTITLE=Various Artist - The Sue Records Story:  New York City - The S
DTITLE=ound of Soul [box set]
DYEAR=1994
DGENRE=Rhythm and Blues
TTITLE0=Ike and Tina Turner - It's Gonna Work Out Fine
TTITLE1=Prince La La - She Put the Hurt on Me
TTITLE2=Barbara George - I Know (You Don't Love Me No More)
TTITLE3=The Señors - May I Have This Dance
TTITLE4=Barbara George - You Talk About Love
TTITLE5=Prince La La - Gettin' Married Soon
TTITLE6=The Blenders - Graveyard
TTITLE7=Ike and Tina Turner - Poor Fool
TTITLE8=Jimmy McGriff - I've Got a Woman, Part 1
TTITLE9=Baby Washington - A Handful of Memories
TTITLE10=Linda and The Del Rios - Come on Let Me Try
TTITLE11=Ike and Tina Turner - Tra La La La La
TTITLE12=Ike and Tina's Kings Of Rhythm - Prancing
TTITLE13=Ike and Tina Turner - You Should'a Treated Me Right
TTITLE14=Barbara George - Send for Me (If You Need Some Lovin')
TTITLE15=Elmore Morris - It Seemed Like Heaven to Me
TTITLE16=King Coleman - Let's Shimmy
TTITLE17=Russell Byrd - Hitch Hike, Part 1
TTITLE18=Prince La La - Come Back to Me
TTITLE19=Ike and Tina Turner - Worried and Hurtin' Inside
TTITLE20=Jackie Shane - Any Other Way
TTITLE21=Baby Washington - That's How Heartaches Are Made
TTITLE22=The Hockadays - Hold on Baby
TTITLE23=Ritchie Barrett - Summer's Love
TTITLE24=Jimmy McGriff - All About My Girl
EXTD=
EXTT0=
EXTT1=
EXTT2=
EXTT3=
EXTT4=
EXTT5=
EXTT6=
EXTT7=
EXTT8=
EXTT9=
EXTT10=
EXTT11=
EXTT12=
EXTT13=
EXTT14=
EXTT15=
EXTT16=
EXTT17=
EXTT18=
EXTT19=
EXTT20=
EXTT21=
EXTT22=
EXTT23=
EXTT24=
PLAYORDER=
